<svg xmlns="http://www.w3.org/2000/svg" viewBox="0 0 960 720" role="img" aria-labelledby="title desc">
  <title id="title">修仙小说主角测试封面</title>
  <desc id="desc">夜色灵脉、翡翠阵纹与二十四道星轨构成的修仙主角测试封面</desc>
  <defs>
    <linearGradient id="bg" x1="0" y1="0" x2="1" y2="1"><stop offset="0" stop-color="#071517"/><stop offset=".58" stop-color="#0b4a47"/><stop offset="1" stop-color="#18b7a0"/></linearGradient>
    <radialGradient id="glow"><stop stop-color="#d9f06b" stop-opacity=".85"/><stop offset="1" stop-color="#d9f06b" stop-opacity="0"/></radialGradient>
  </defs>
  <rect width="960" height="720" fill="url(#bg)"/><circle cx="780" cy="120" r="220" fill="url(#glow)" opacity=".46"/>
  <g fill="none" stroke="#9ee4d0" stroke-opacity=".45" stroke-width="2"><circle cx="480" cy="340" r="250"/><circle cx="480" cy="340" r="186"/><circle cx="480" cy="340" r="120"/><path d="M480 90V590M230 340h500M303 163l354 354M657 163 303 517"/></g>
  <g fill="#d9f06b"><circle cx="480" cy="90" r="7"/><circle cx="730" cy="340" r="6"/><circle cx="480" cy="590" r="7"/><circle cx="230" cy="340" r="6"/><circle cx="657" cy="163" r="5"/><circle cx="303" cy="517" r="5"/></g>
  <path d="M480 156l34 101 106 34-106 34-34 101-34-101-106-34 106-34z" fill="#18b7a0" fill-opacity=".46" stroke="#d9f06b" stroke-width="4"/><circle cx="480" cy="325" r="20" fill="#d9f06b"/>
  <text x="72" y="84" fill="#d9f06b" font-family="Arial, sans-serif" font-size="22" font-weight="700" letter-spacing="7">YUNDU · CULTIVATION ARCHIVE</text>
  <text x="72" y="610" fill="#f4fff7" font-family="PingFang SC, Microsoft YaHei, sans-serif" font-size="48" font-weight="700">修仙小说主角测试</text><text x="76" y="656" fill="#bfe9dc" font-family="PingFang SC, Microsoft YaHei, sans-serif" font-size="20">36 道修真情境 · 24 种主角结果 · 选择你的道途</text>
</svg>
