<svg xmlns="http://www.w3.org/2000/svg" viewBox="0 0 720 480" role="img" aria-labelledby="title desc">
  <title id="title">历史女主测试宫灯与星轨抽象图</title>
  <desc id="desc">黛紫宫廷夜色中，一盏金色宫灯连接十二颗女主星辰。</desc>
  <defs>
    <linearGradient id="bg" x1="0" y1="0" x2="1" y2="1">
      <stop offset="0" stop-color="#21172f"/>
      <stop offset=".58" stop-color="#4e3b64"/>
      <stop offset="1" stop-color="#8f769b"/>
    </linearGradient>
    <radialGradient id="glow">
      <stop offset="0" stop-color="#f4dca8" stop-opacity=".72"/>
      <stop offset="1" stop-color="#c79b55" stop-opacity="0"/>
    </radialGradient>
    <filter id="blur"><feGaussianBlur stdDeviation="8"/></filter>
  </defs>
  <rect width="720" height="480" rx="30" fill="url(#bg)"/>
  <circle cx="535" cy="142" r="165" fill="url(#glow)" filter="url(#blur)"/>
  <g fill="none" stroke="#dfbd7a" stroke-opacity=".42">
    <path d="M68 330C180 180 298 370 432 198S640 126 690 62"/>
    <path d="M40 402C166 248 300 420 462 256S632 205 706 126"/>
    <circle cx="528" cy="216" r="118"/>
    <circle cx="528" cy="216" r="154" stroke-opacity=".18"/>
  </g>
  <g fill="#f0d697">
    <circle cx="91" cy="312" r="4"/><circle cx="150" cy="247" r="5"/><circle cx="211" cy="252" r="3"/>
    <circle cx="281" cy="294" r="5"/><circle cx="344" cy="286" r="3"/><circle cx="405" cy="227" r="5"/>
    <circle cx="461" cy="169" r="3"/><circle cx="521" cy="129" r="5"/><circle cx="580" cy="99" r="3"/>
    <circle cx="631" cy="92" r="5"/><circle cx="664" cy="66" r="3"/><circle cx="680" cy="45" r="5"/>
  </g>
  <g transform="translate(444 120)">
    <path d="M84 0l13 35 37 2-29 23 9 36-30-20-30 20 9-36-29-23 37-2Z" fill="#c79b55" opacity=".92"/>
    <path d="M49 103h70l-11 104H60Z" fill="#f6e5b5" fill-opacity=".17" stroke="#e9c982" stroke-width="3"/>
    <path d="M62 112h44l-7 82H69Z" fill="#f6dda1" fill-opacity=".54"/>
    <path d="M35 103h98M45 218h78M84 208v48" stroke="#e9c982" stroke-width="4" stroke-linecap="round"/>
  </g>
  <g fill="#fff8ec">
    <text x="58" y="76" font-family="PingFang SC, Microsoft YaHei, sans-serif" font-size="16" font-weight="700" letter-spacing="5">HISTORICAL HEROINES</text>
    <text x="58" y="142" font-family="Songti SC, SimSun, serif" font-size="46">她的名字，</text>
    <text x="58" y="202" font-family="Songti SC, SimSun, serif" font-size="46">藏在你的选择里</text>
  </g>
  <text x="61" y="238" fill="#e4c889" font-family="PingFang SC, Microsoft YaHei, sans-serif" font-size="15" letter-spacing="2">30 QUESTIONS · 12 HEROINES</text>
</svg>
