<svg xmlns="http://www.w3.org/2000/svg" viewBox="0 0 1200 800" role="img" aria-labelledby="title desc">
  <title id="title">历史帝王测试封面</title>
  <desc id="desc">蓝绿色夜空、金色王冠与抽象疆域线条</desc>
  <defs>
    <linearGradient id="bg" x1="0" y1="0" x2="1" y2="1">
      <stop offset="0" stop-color="#0b2438" />
      <stop offset="1" stop-color="#1f5876" />
    </linearGradient>
    <radialGradient id="glow" cx="72%" cy="30%" r="65%">
      <stop offset="0" stop-color="#d9b55d" stop-opacity=".72" />
      <stop offset="1" stop-color="#d9b55d" stop-opacity="0" />
    </radialGradient>
  </defs>
  <rect width="1200" height="800" fill="url(#bg)" />
  <rect width="1200" height="800" fill="url(#glow)" />
  <path d="M0 610c190-100 300-54 438-112 157-66 218-12 362-98 112-67 245-77 400-28v428H0Z" fill="#082032" opacity=".52" />
  <g fill="none" stroke="#d5a64a" stroke-opacity=".42" stroke-width="3">
    <path d="M86 540c122-74 216-81 324-35 106 45 190 23 293-52 86-62 168-87 282-48 70 24 129 17 172-8" />
    <path d="M140 628c120-42 214-40 306-2 118 48 226 35 342-47 102-73 207-65 302-23" />
  </g>
  <g transform="translate(600 275)">
    <path d="M-190-110  -112 22  -36-54  0 52  36-54  112 22  190-110  154 102  -154 102Z" fill="#d5a64a" />
    <path d="M-154 102h308l-24 46h-260Z" fill="#b27c2e" />
    <circle cx="-190" cy="-110" r="13" fill="#f5d98a" />
    <circle cx="0" cy="52" r="13" fill="#f5d98a" />
    <circle cx="190" cy="-110" r="13" fill="#f5d98a" />
  </g>
  <text x="70" y="106" fill="#e8d6a0" font-family="Georgia, serif" font-size="28" letter-spacing="8">HISTORICAL EMPEROR</text>
  <text x="70" y="154" fill="#fff9e9" font-family="serif" font-size="42">从你的选择里，看见统治风格</text>
</svg>
